<svg xmlns="http://www.w3.org/2000/svg" viewBox="0 0 200 240">
  <!-- Week 11 — Tummy time! Head lifting up. Sage. Body slightly tilted/prone. -->

  <!-- Background -->
  <rect width="200" height="240" fill="#fdf8f0" rx="16"/>

  <!-- Stars -->
  <polygon transform="translate(170,32) scale(0.75)" points="0,-9 2.12,-2.91 8.56,-2.78 3.42,1.11 5.29,7.28 0,3.6 -5.29,7.28 -3.42,1.11 -8.56,-2.78 -2.12,-2.91" fill="#f5c842" opacity="0.55"/>

  <!-- Ground/floor hint -->
  <ellipse cx="100" cy="228" rx="65" ry="8" fill="#a8c9a8" opacity="0.2"/>

  <!-- Body — prone, wider/flatter for tummy time -->
  <ellipse cx="100" cy="200" rx="52" ry="22" fill="#a8c9a8" stroke="#3a2a4a" stroke-width="2"/>

  <!-- Left arm stretched out on floor -->
  <ellipse cx="48" cy="208" rx="16" ry="8" fill="#a8c9a8" stroke="#3a2a4a" stroke-width="2" transform="rotate(-10 48 208)"/>

  <!-- Right arm stretched out on floor -->
  <ellipse cx="152" cy="208" rx="16" ry="8" fill="#a8c9a8" stroke="#3a2a4a" stroke-width="2" transform="rotate(10 152 208)"/>

  <!-- Head — tilted up, like lifting during tummy time -->
  <circle cx="100" cy="90" r="63" fill="#ffffff" stroke="#3a2a4a" stroke-width="2.5" transform="rotate(-8 100 150)"/>

  <!-- Left cheek blush -->
  <circle cx="70" cy="108" r="22" fill="#f2a07b" opacity="0.30" transform="rotate(-8 100 150)"/>

  <!-- Right cheek blush -->
  <circle cx="130" cy="108" r="22" fill="#f2a07b" opacity="0.30" transform="rotate(-8 100 150)"/>

  <!-- Left eye — determined, closed crescent -->
  <path d="M 81,87 Q 89,79 97,87" fill="none" stroke="#3a2a4a" stroke-width="2.5" stroke-linecap="round" transform="rotate(-8 100 150)"/>

  <!-- Right eye — determined -->
  <path d="M 103,87 Q 111,79 119,87" fill="none" stroke="#3a2a4a" stroke-width="2.5" stroke-linecap="round" transform="rotate(-8 100 150)"/>

  <!-- Nose -->
  <circle cx="96.5" cy="98" r="1.5" fill="#3a2a4a" opacity="0.6" transform="rotate(-8 100 150)"/>
  <circle cx="103.5" cy="98" r="1.5" fill="#3a2a4a" opacity="0.6" transform="rotate(-8 100 150)"/>

  <!-- Mouth — focused, tiny pursed -->
  <path d="M 94,110 Q 100,113 106,110" fill="none" stroke="#3a2a4a" stroke-width="2" stroke-linecap="round" transform="rotate(-8 100 150)"/>

  <!-- Small sweat bead — working hard! -->
  <ellipse cx="55" cy="78" rx="4" ry="5.5" fill="#b8d8f0" opacity="0.6" transform="rotate(-15 55 78)"/>
</svg>
