<svg xmlns="http://www.w3.org/2000/svg" viewBox="0 0 200 240">
  <!-- Week 7 — Tracking faces and voices. Eyes more attentive. Sage outfit. -->

  <!-- Background -->
  <rect width="200" height="240" fill="#fdf8f0" rx="16"/>

  <!-- Stars -->
  <polygon transform="translate(170,30) scale(0.8)" points="0,-9 2.12,-2.91 8.56,-2.78 3.42,1.11 5.29,7.28 0,3.6 -5.29,7.28 -3.42,1.11 -8.56,-2.78 -2.12,-2.91" fill="#f5c842" opacity="0.55"/>
  <polygon transform="translate(25,45) scale(0.5)" points="0,-9 2.12,-2.91 8.56,-2.78 3.42,1.11 5.29,7.28 0,3.6 -5.29,7.28 -3.42,1.11 -8.56,-2.78 -2.12,-2.91" fill="#f5c842" opacity="0.4"/>

  <!-- Cloud decoration -->
  <ellipse cx="28" cy="32" rx="17" ry="10" fill="#b8d8f0" opacity="0.3"/>
  <ellipse cx="42" cy="26" rx="14" ry="9" fill="#b8d8f0" opacity="0.3"/>
  <ellipse cx="54" cy="33" rx="11" ry="8" fill="#b8d8f0" opacity="0.3"/>

  <!-- Body -->
  <ellipse cx="100" cy="192" rx="40" ry="30" fill="#a8c9a8" stroke="#3a2a4a" stroke-width="2"/>

  <!-- Left arm -->
  <ellipse cx="61" cy="198" rx="13" ry="9" fill="#a8c9a8" stroke="#3a2a4a" stroke-width="2" transform="rotate(-22 61 198)"/>

  <!-- Right arm -->
  <ellipse cx="139" cy="198" rx="13" ry="9" fill="#a8c9a8" stroke="#3a2a4a" stroke-width="2" transform="rotate(22 139 198)"/>

  <!-- Head — very slight tilt for tracking look -->
  <circle cx="100" cy="95" r="63" fill="#ffffff" stroke="#3a2a4a" stroke-width="2.5"/>

  <!-- Left cheek blush -->
  <circle cx="68" cy="111" r="22" fill="#f2a07b" opacity="0.30"/>

  <!-- Right cheek blush -->
  <circle cx="132" cy="111" r="22" fill="#f2a07b" opacity="0.30"/>

  <!-- Left eye — slightly open with small pupil (tracking) -->
  <path d="M 79,90 Q 87,82 95,90" fill="none" stroke="#3a2a4a" stroke-width="2.5" stroke-linecap="round"/>
  <ellipse cx="87" cy="90" rx="4" ry="2.8" fill="#3a2a4a" opacity="0.75"/>

  <!-- Right eye — slightly open, pupils shifted slightly right (tracking something) -->
  <path d="M 105,90 Q 113,82 121,90" fill="none" stroke="#3a2a4a" stroke-width="2.5" stroke-linecap="round"/>
  <ellipse cx="114" cy="90" rx="4" ry="2.8" fill="#3a2a4a" opacity="0.75"/>

  <!-- Nose -->
  <circle cx="96.5" cy="101" r="1.5" fill="#3a2a4a" opacity="0.6"/>
  <circle cx="103.5" cy="101" r="1.5" fill="#3a2a4a" opacity="0.6"/>

  <!-- Mouth — neutral, slightly open in wonder -->
  <path d="M 93,112 Q 100,115 107,112" fill="none" stroke="#3a2a4a" stroke-width="2" stroke-linecap="round"/>
</svg>
