<svg xmlns="http://www.w3.org/2000/svg" viewBox="0 0 200 240">
  <!-- Week 15 — Standing supported. Legs visible. Blush outfit. -->

  <!-- Background -->
  <rect width="200" height="240" fill="#fdf8f0" rx="16"/>

  <!-- Stars -->
  <polygon transform="translate(28,32) scale(0.75)" points="0,-9 2.12,-2.91 8.56,-2.78 3.42,1.11 5.29,7.28 0,3.6 -5.29,7.28 -3.42,1.11 -8.56,-2.78 -2.12,-2.91" fill="#f5c842" opacity="0.6"/>
  <polygon transform="translate(170,40) scale(0.5)" points="0,-9 2.12,-2.91 8.56,-2.78 3.42,1.11 5.29,7.28 0,3.6 -5.29,7.28 -3.42,1.11 -8.56,-2.78 -2.12,-2.91" fill="#f5c842" opacity="0.45"/>

  <!-- Left leg -->
  <ellipse cx="84" cy="222" rx="13" ry="18" fill="#f7c9ae" stroke="#3a2a4a" stroke-width="2"/>
  <!-- Left foot -->
  <ellipse cx="82" cy="234" rx="11" ry="7" fill="#f7c9ae" stroke="#3a2a4a" stroke-width="2" transform="rotate(-8 82 234)"/>

  <!-- Right leg -->
  <ellipse cx="116" cy="222" rx="13" ry="18" fill="#f7c9ae" stroke="#3a2a4a" stroke-width="2"/>
  <!-- Right foot -->
  <ellipse cx="118" cy="234" rx="11" ry="7" fill="#f7c9ae" stroke="#3a2a4a" stroke-width="2" transform="rotate(8 118 234)"/>

  <!-- Body — taller, upright stance -->
  <ellipse cx="100" cy="190" rx="36" ry="26" fill="#f7c9ae" stroke="#3a2a4a" stroke-width="2"/>

  <!-- Left arm -->
  <ellipse cx="62" cy="194" rx="13" ry="9" fill="#f7c9ae" stroke="#3a2a4a" stroke-width="2" transform="rotate(-20 62 194)"/>

  <!-- Right arm -->
  <ellipse cx="138" cy="194" rx="13" ry="9" fill="#f7c9ae" stroke="#3a2a4a" stroke-width="2" transform="rotate(20 138 194)"/>

  <!-- Head -->
  <circle cx="100" cy="93" r="63" fill="#ffffff" stroke="#3a2a4a" stroke-width="2.5"/>

  <!-- Left cheek blush -->
  <circle cx="68" cy="109" r="22" fill="#f2a07b" opacity="0.32"/>

  <!-- Right cheek blush -->
  <circle cx="132" cy="109" r="22" fill="#f2a07b" opacity="0.32"/>

  <!-- Left eye — closed crescent -->
  <path d="M 80,88 Q 88,80 96,88" fill="none" stroke="#3a2a4a" stroke-width="2.5" stroke-linecap="round"/>

  <!-- Right eye — closed crescent -->
  <path d="M 104,88 Q 112,80 120,88" fill="none" stroke="#3a2a4a" stroke-width="2.5" stroke-linecap="round"/>

  <!-- Nose -->
  <circle cx="96.5" cy="99" r="1.5" fill="#3a2a4a" opacity="0.6"/>
  <circle cx="103.5" cy="99" r="1.5" fill="#3a2a4a" opacity="0.6"/>

  <!-- Mouth — tiny proud smile -->
  <path d="M 92,111 Q 100,116 108,111" fill="none" stroke="#3a2a4a" stroke-width="2.2" stroke-linecap="round"/>
</svg>
