<svg xmlns="http://www.w3.org/2000/svg" viewBox="0 0 200 240">
  <!-- Week 4 — 1 month. Sleeping deeply. Lavender swaddle. -->

  <!-- Background -->
  <rect width="200" height="240" fill="#fdf8f0" rx="16"/>

  <!-- Crescent moon -->
  <circle cx="168" cy="38" r="13" fill="#f5c842" opacity="0.75"/>
  <circle cx="175" cy="35" r="11" fill="#fdf8f0"/>

  <!-- Small star top-left -->
  <polygon transform="translate(26,32) scale(0.75)" points="0,-9 2.12,-2.91 8.56,-2.78 3.42,1.11 5.29,7.28 0,3.6 -5.29,7.28 -3.42,1.11 -8.56,-2.78 -2.12,-2.91" fill="#f5c842" opacity="0.55"/>

  <!-- Tiny star -->
  <polygon transform="translate(148,58) scale(0.45)" points="0,-9 2.12,-2.91 8.56,-2.78 3.42,1.11 5.29,7.28 0,3.6 -5.29,7.28 -3.42,1.11 -8.56,-2.78 -2.12,-2.91" fill="#f5c842" opacity="0.4"/>

  <!-- Body — swaddle, wider and rounder -->
  <ellipse cx="100" cy="193" rx="44" ry="33" fill="#d4c5f0" stroke="#3a2a4a" stroke-width="2"/>

  <!-- Left arm (tucked) -->
  <ellipse cx="58" cy="200" rx="13" ry="9" fill="#d4c5f0" stroke="#3a2a4a" stroke-width="2" transform="rotate(-25 58 200)"/>

  <!-- Right arm (tucked) -->
  <ellipse cx="142" cy="200" rx="13" ry="9" fill="#d4c5f0" stroke="#3a2a4a" stroke-width="2" transform="rotate(25 142 200)"/>

  <!-- Head -->
  <circle cx="100" cy="96" r="64" fill="#ffffff" stroke="#3a2a4a" stroke-width="2.5"/>

  <!-- Left cheek blush -->
  <circle cx="68" cy="112" r="23" fill="#f2a07b" opacity="0.32"/>

  <!-- Right cheek blush -->
  <circle cx="132" cy="112" r="23" fill="#f2a07b" opacity="0.32"/>

  <!-- Left eye — sleeping crescent -->
  <path d="M 80,91 Q 88,83 96,91" fill="none" stroke="#3a2a4a" stroke-width="2.5" stroke-linecap="round"/>

  <!-- Right eye — sleeping crescent -->
  <path d="M 104,91 Q 112,83 120,91" fill="none" stroke="#3a2a4a" stroke-width="2.5" stroke-linecap="round"/>

  <!-- Nose -->
  <circle cx="96.5" cy="101" r="1.5" fill="#3a2a4a" opacity="0.6"/>
  <circle cx="103.5" cy="101" r="1.5" fill="#3a2a4a" opacity="0.6"/>

  <!-- Mouth — tiny, peaceful -->
  <path d="M 93,113 Q 100,117 107,113" fill="none" stroke="#3a2a4a" stroke-width="2" stroke-linecap="round"/>

  <!-- ZZZ floating -->
  <text x="143" y="66" font-family="Nunito,sans-serif" font-size="13" fill="#3a2a4a" opacity="0.35" font-weight="700">z</text>
  <text x="154" y="55" font-family="Nunito,sans-serif" font-size="11" fill="#3a2a4a" opacity="0.25" font-weight="700">z</text>
  <text x="162" y="46" font-family="Nunito,sans-serif" font-size="9" fill="#3a2a4a" opacity="0.18" font-weight="700">z</text>
</svg>
