<svg xmlns="http://www.w3.org/2000/svg" viewBox="0 0 200 240">
  <!-- Week 10 — Hands to mouth, discovering fingers. Blue. One arm raised. -->

  <!-- Background -->
  <rect width="200" height="240" fill="#fdf8f0" rx="16"/>

  <!-- Stars -->
  <polygon transform="translate(28,32) scale(0.7)" points="0,-9 2.12,-2.91 8.56,-2.78 3.42,1.11 5.29,7.28 0,3.6 -5.29,7.28 -3.42,1.11 -8.56,-2.78 -2.12,-2.91" fill="#f5c842" opacity="0.5"/>
  <polygon transform="translate(172,40) scale(0.5)" points="0,-9 2.12,-2.91 8.56,-2.78 3.42,1.11 5.29,7.28 0,3.6 -5.29,7.28 -3.42,1.11 -8.56,-2.78 -2.12,-2.91" fill="#f5c842" opacity="0.4"/>

  <!-- Body -->
  <ellipse cx="100" cy="194" rx="40" ry="30" fill="#b8d8f0" stroke="#3a2a4a" stroke-width="2"/>

  <!-- Left arm — normal -->
  <ellipse cx="62" cy="200" rx="13" ry="9" fill="#b8d8f0" stroke="#3a2a4a" stroke-width="2" transform="rotate(-22 62 200)"/>

  <!-- Right arm — raised toward face (discovering hands!) -->
  <ellipse cx="136" cy="175" rx="13" ry="9" fill="#b8d8f0" stroke="#3a2a4a" stroke-width="2" transform="rotate(-60 136 175)"/>

  <!-- Chubby fist raised near face -->
  <circle cx="128" cy="155" r="10" fill="#b8d8f0" stroke="#3a2a4a" stroke-width="2"/>
  <!-- Finger knuckle lines -->
  <path d="M 122,152 Q 124,150 128,152 Q 132,150 134,152" fill="none" stroke="#3a2a4a" stroke-width="1.2" opacity="0.5"/>

  <!-- Head -->
  <circle cx="100" cy="95" r="63" fill="#ffffff" stroke="#3a2a4a" stroke-width="2.5"/>

  <!-- Left cheek blush -->
  <circle cx="68" cy="111" r="22" fill="#f2a07b" opacity="0.30"/>

  <!-- Right cheek blush -->
  <circle cx="132" cy="111" r="22" fill="#f2a07b" opacity="0.30"/>

  <!-- Left eye — closed crescent -->
  <path d="M 80,90 Q 88,82 96,90" fill="none" stroke="#3a2a4a" stroke-width="2.5" stroke-linecap="round"/>

  <!-- Right eye — closed crescent -->
  <path d="M 104,90 Q 112,82 120,90" fill="none" stroke="#3a2a4a" stroke-width="2.5" stroke-linecap="round"/>

  <!-- Nose -->
  <circle cx="96.5" cy="101" r="1.5" fill="#3a2a4a" opacity="0.6"/>
  <circle cx="103.5" cy="101" r="1.5" fill="#3a2a4a" opacity="0.6"/>

  <!-- Mouth — slightly open, curious -->
  <path d="M 93,113 Q 100,116 107,113" fill="none" stroke="#3a2a4a" stroke-width="2" stroke-linecap="round"/>
  <ellipse cx="100" cy="115" rx="4" ry="3" fill="#3a2a4a" opacity="0.3"/>
</svg>
