<svg xmlns="http://www.w3.org/2000/svg" viewBox="0 0 200 240">
  <!-- Week 9 — First coos and vowel sounds. Mouth slightly open. Lavender. -->

  <!-- Background -->
  <rect width="200" height="240" fill="#fdf8f0" rx="16"/>

  <!-- Stars -->
  <polygon transform="translate(168,35) scale(0.75)" points="0,-9 2.12,-2.91 8.56,-2.78 3.42,1.11 5.29,7.28 0,3.6 -5.29,7.28 -3.42,1.11 -8.56,-2.78 -2.12,-2.91" fill="#f5c842" opacity="0.55"/>
  <polygon transform="translate(30,28) scale(0.5)" points="0,-9 2.12,-2.91 8.56,-2.78 3.42,1.11 5.29,7.28 0,3.6 -5.29,7.28 -3.42,1.11 -8.56,-2.78 -2.12,-2.91" fill="#f5c842" opacity="0.45"/>

  <!-- Small music note dots (cooing) -->
  <circle cx="150" cy="58" r="3.5" fill="#d4c5f0" opacity="0.7"/>
  <circle cx="158" cy="50" r="2.5" fill="#d4c5f0" opacity="0.6"/>
  <circle cx="164" cy="44" r="2" fill="#d4c5f0" opacity="0.5"/>

  <!-- Body -->
  <ellipse cx="100" cy="192" rx="40" ry="30" fill="#d4c5f0" stroke="#3a2a4a" stroke-width="2"/>

  <!-- Left arm -->
  <ellipse cx="61" cy="198" rx="13" ry="9" fill="#d4c5f0" stroke="#3a2a4a" stroke-width="2" transform="rotate(-22 61 198)"/>

  <!-- Right arm -->
  <ellipse cx="139" cy="198" rx="13" ry="9" fill="#d4c5f0" stroke="#3a2a4a" stroke-width="2" transform="rotate(22 139 198)"/>

  <!-- Head -->
  <circle cx="100" cy="95" r="63" fill="#ffffff" stroke="#3a2a4a" stroke-width="2.5"/>

  <!-- Left cheek blush -->
  <circle cx="68" cy="111" r="22" fill="#f2a07b" opacity="0.30"/>

  <!-- Right cheek blush -->
  <circle cx="132" cy="111" r="22" fill="#f2a07b" opacity="0.30"/>

  <!-- Left eye — closed crescent -->
  <path d="M 80,90 Q 88,82 96,90" fill="none" stroke="#3a2a4a" stroke-width="2.5" stroke-linecap="round"/>

  <!-- Right eye — closed crescent -->
  <path d="M 104,90 Q 112,82 120,90" fill="none" stroke="#3a2a4a" stroke-width="2.5" stroke-linecap="round"/>

  <!-- Nose -->
  <circle cx="96.5" cy="101" r="1.5" fill="#3a2a4a" opacity="0.6"/>
  <circle cx="103.5" cy="101" r="1.5" fill="#3a2a4a" opacity="0.6"/>

  <!-- Mouth — small O shape (cooing) -->
  <ellipse cx="100" cy="115" rx="6" ry="5" fill="#3a2a4a" stroke="#3a2a4a" stroke-width="1.5"/>
  <ellipse cx="100" cy="115" rx="4" ry="3.2" fill="#ffffff" opacity="0.85"/>
</svg>
