<svg xmlns="http://www.w3.org/2000/svg" viewBox="0 0 200 240">
  <!-- Week 16 — Curious and aware. Eyes widest of all. Looking outward. Gold outfit. -->

  <!-- Background -->
  <rect width="200" height="240" fill="#fdf8f0" rx="16"/>

  <!-- Stars — abundant, matching the alert curiosity of this week -->
  <polygon transform="translate(26,28) scale(0.95)" points="0,-9 2.12,-2.91 8.56,-2.78 3.42,1.11 5.29,7.28 0,3.6 -5.29,7.28 -3.42,1.11 -8.56,-2.78 -2.12,-2.91" fill="#f5c842" opacity="0.7"/>
  <polygon transform="translate(172,32) scale(0.85)" points="0,-9 2.12,-2.91 8.56,-2.78 3.42,1.11 5.29,7.28 0,3.6 -5.29,7.28 -3.42,1.11 -8.56,-2.78 -2.12,-2.91" fill="#f5c842" opacity="0.65"/>
  <polygon transform="translate(155,16) scale(0.5)" points="0,-9 2.12,-2.91 8.56,-2.78 3.42,1.11 5.29,7.28 0,3.6 -5.29,7.28 -3.42,1.11 -8.56,-2.78 -2.12,-2.91" fill="#f5c842" opacity="0.5"/>
  <polygon transform="translate(40,16) scale(0.5)" points="0,-9 2.12,-2.91 8.56,-2.78 3.42,1.11 5.29,7.28 0,3.6 -5.29,7.28 -3.42,1.11 -8.56,-2.78 -2.12,-2.91" fill="#f5c842" opacity="0.5"/>
  <polygon transform="translate(18,55) scale(0.38)" points="0,-9 2.12,-2.91 8.56,-2.78 3.42,1.11 5.29,7.28 0,3.6 -5.29,7.28 -3.42,1.11 -8.56,-2.78 -2.12,-2.91" fill="#f5c842" opacity="0.4"/>

  <!-- Body — gold, confident -->
  <ellipse cx="100" cy="192" rx="40" ry="30" fill="#f5c842" stroke="#3a2a4a" stroke-width="2"/>

  <!-- Left arm — reaching outward (looking at the world!) -->
  <ellipse cx="58" cy="192" rx="14" ry="9" fill="#f5c842" stroke="#3a2a4a" stroke-width="2" transform="rotate(-30 58 192)"/>

  <!-- Right arm — reaching outward -->
  <ellipse cx="142" cy="192" rx="14" ry="9" fill="#f5c842" stroke="#3a2a4a" stroke-width="2" transform="rotate(30 142 192)"/>

  <!-- Head -->
  <circle cx="100" cy="94" r="64" fill="#ffffff" stroke="#3a2a4a" stroke-width="2.5"/>

  <!-- Left cheek blush -->
  <circle cx="67" cy="111" r="24" fill="#f2a07b" opacity="0.35"/>

  <!-- Right cheek blush -->
  <circle cx="133" cy="111" r="24" fill="#f2a07b" opacity="0.35"/>

  <!-- Left eye — WIDEST, most open — curious and aware -->
  <path d="M 78,89 Q 87,78 96,89" fill="none" stroke="#3a2a4a" stroke-width="2.8" stroke-linecap="round"/>
  <ellipse cx="87" cy="89" rx="6" ry="4.5" fill="#3a2a4a" opacity="0.82"/>
  <!-- White highlight sparkle -->
  <circle cx="89.5" cy="87" r="2" fill="#ffffff" opacity="0.95"/>

  <!-- Right eye — WIDEST -->
  <path d="M 104,89 Q 113,78 122,89" fill="none" stroke="#3a2a4a" stroke-width="2.8" stroke-linecap="round"/>
  <ellipse cx="113" cy="89" rx="6" ry="4.5" fill="#3a2a4a" opacity="0.82"/>
  <!-- White highlight sparkle -->
  <circle cx="115.5" cy="87" r="2" fill="#ffffff" opacity="0.95"/>

  <!-- Nose -->
  <circle cx="96.5" cy="101" r="1.5" fill="#3a2a4a" opacity="0.6"/>
  <circle cx="103.5" cy="101" r="1.5" fill="#3a2a4a" opacity="0.6"/>

  <!-- Mouth — serene, quietly content — proportions do the work, not the smile -->
  <path d="M 93,113 Q 100,117 107,113" fill="none" stroke="#3a2a4a" stroke-width="2" stroke-linecap="round"/>
</svg>
