<svg xmlns="http://www.w3.org/2000/svg" viewBox="0 0 200 240">
  <!-- Week 14 — Rolling prep. Slight lean. Powder blue. Body slightly tilted. -->

  <!-- Background -->
  <rect width="200" height="240" fill="#fdf8f0" rx="16"/>

  <!-- Stars -->
  <polygon transform="translate(168,38) scale(0.72)" points="0,-9 2.12,-2.91 8.56,-2.78 3.42,1.11 5.29,7.28 0,3.6 -5.29,7.28 -3.42,1.11 -8.56,-2.78 -2.12,-2.91" fill="#f5c842" opacity="0.5"/>
  <polygon transform="translate(28,36) scale(0.48)" points="0,-9 2.12,-2.91 8.56,-2.78 3.42,1.11 5.29,7.28 0,3.6 -5.29,7.28 -3.42,1.11 -8.56,-2.78 -2.12,-2.91" fill="#f5c842" opacity="0.4"/>

  <!-- Body — slightly tilted/leaning -->
  <ellipse cx="100" cy="192" rx="40" ry="30" fill="#b8d8f0" stroke="#3a2a4a" stroke-width="2" transform="rotate(8 100 192)"/>

  <!-- Left arm — planted -->
  <ellipse cx="58" cy="202" rx="13" ry="9" fill="#b8d8f0" stroke="#3a2a4a" stroke-width="2" transform="rotate(-18 58 202)"/>

  <!-- Right arm — extended/leaning for roll prep -->
  <ellipse cx="144" cy="188" rx="15" ry="9" fill="#b8d8f0" stroke="#3a2a4a" stroke-width="2" transform="rotate(15 144 188)"/>

  <!-- Head — slight tilt matching lean -->
  <circle cx="100" cy="94" r="63" fill="#ffffff" stroke="#3a2a4a" stroke-width="2.5" transform="rotate(5 100 150)"/>

  <!-- Left cheek blush -->
  <circle cx="67" cy="110" r="22" fill="#f2a07b" opacity="0.30" transform="rotate(5 100 150)"/>

  <!-- Right cheek blush -->
  <circle cx="133" cy="110" r="22" fill="#f2a07b" opacity="0.30" transform="rotate(5 100 150)"/>

  <!-- Left eye -->
  <path d="M 80,89 Q 88,81 96,89" fill="none" stroke="#3a2a4a" stroke-width="2.5" stroke-linecap="round" transform="rotate(5 100 150)"/>

  <!-- Right eye -->
  <path d="M 104,89 Q 112,81 120,89" fill="none" stroke="#3a2a4a" stroke-width="2.5" stroke-linecap="round" transform="rotate(5 100 150)"/>

  <!-- Nose -->
  <circle cx="96.5" cy="100" r="1.5" fill="#3a2a4a" opacity="0.6" transform="rotate(5 100 150)"/>
  <circle cx="103.5" cy="100" r="1.5" fill="#3a2a4a" opacity="0.6" transform="rotate(5 100 150)"/>

  <!-- Mouth — concentrating -->
  <path d="M 94,112 Q 100,115 106,112" fill="none" stroke="#3a2a4a" stroke-width="2" stroke-linecap="round" transform="rotate(5 100 150)"/>

  <!-- Motion curve hinting at roll -->
  <path d="M 160,185 Q 175,195 165,210" fill="none" stroke="#b8d8f0" stroke-width="2.5" stroke-linecap="round" stroke-dasharray="4,4" opacity="0.5"/>
</svg>
