<svg xmlns="http://www.w3.org/2000/svg" viewBox="0 0 200 240">
  <!-- Week 5 — Eyes beginning to track. Powder blue. -->

  <!-- Background -->
  <rect width="200" height="240" fill="#fdf8f0" rx="16"/>

  <!-- Stars -->
  <polygon transform="translate(30,35) scale(0.8)" points="0,-9 2.12,-2.91 8.56,-2.78 3.42,1.11 5.29,7.28 0,3.6 -5.29,7.28 -3.42,1.11 -8.56,-2.78 -2.12,-2.91" fill="#f5c842" opacity="0.6"/>
  <polygon transform="translate(162,42) scale(0.55)" points="0,-9 2.12,-2.91 8.56,-2.78 3.42,1.11 5.29,7.28 0,3.6 -5.29,7.28 -3.42,1.11 -8.56,-2.78 -2.12,-2.91" fill="#f5c842" opacity="0.45"/>
  <polygon transform="translate(175,22) scale(0.4)" points="0,-9 2.12,-2.91 8.56,-2.78 3.42,1.11 5.29,7.28 0,3.6 -5.29,7.28 -3.42,1.11 -8.56,-2.78 -2.12,-2.91" fill="#f5c842" opacity="0.35"/>

  <!-- Body -->
  <ellipse cx="100" cy="192" rx="40" ry="30" fill="#b8d8f0" stroke="#3a2a4a" stroke-width="2"/>

  <!-- Left arm -->
  <ellipse cx="61" cy="198" rx="13" ry="9" fill="#b8d8f0" stroke="#3a2a4a" stroke-width="2" transform="rotate(-22 61 198)"/>

  <!-- Right arm -->
  <ellipse cx="139" cy="198" rx="13" ry="9" fill="#b8d8f0" stroke="#3a2a4a" stroke-width="2" transform="rotate(22 139 198)"/>

  <!-- Head -->
  <circle cx="100" cy="95" r="63" fill="#ffffff" stroke="#3a2a4a" stroke-width="2.5"/>

  <!-- Left cheek blush -->
  <circle cx="68" cy="111" r="22" fill="#f2a07b" opacity="0.30"/>

  <!-- Right cheek blush -->
  <circle cx="132" cy="111" r="22" fill="#f2a07b" opacity="0.30"/>

  <!-- Left eye — very slightly open (arc + tiny pupil) -->
  <path d="M 80,90 Q 88,82 96,90" fill="none" stroke="#3a2a4a" stroke-width="2.5" stroke-linecap="round"/>
  <ellipse cx="88" cy="90" rx="3.5" ry="2.2" fill="#3a2a4a" opacity="0.7"/>

  <!-- Right eye — very slightly open -->
  <path d="M 104,90 Q 112,82 120,90" fill="none" stroke="#3a2a4a" stroke-width="2.5" stroke-linecap="round"/>
  <ellipse cx="112" cy="90" rx="3.5" ry="2.2" fill="#3a2a4a" opacity="0.7"/>

  <!-- Nose -->
  <circle cx="96.5" cy="101" r="1.5" fill="#3a2a4a" opacity="0.6"/>
  <circle cx="103.5" cy="101" r="1.5" fill="#3a2a4a" opacity="0.6"/>

  <!-- Mouth — tiny neutral -->
  <path d="M 93,112 Q 100,115 107,112" fill="none" stroke="#3a2a4a" stroke-width="2" stroke-linecap="round"/>

  <!-- Small cloud shape top-left -->
  <ellipse cx="22" cy="215" rx="16" ry="9" fill="#b8d8f0" opacity="0.35"/>
  <ellipse cx="35" cy="210" rx="13" ry="8" fill="#b8d8f0" opacity="0.35"/>
  <ellipse cx="46" cy="216" rx="11" ry="7" fill="#b8d8f0" opacity="0.35"/>
</svg>
