<svg xmlns="http://www.w3.org/2000/svg" viewBox="0 0 200 240">
  <!-- Week 6 — First social smiles beginning. Tiny upward curl at mouth corners. Blush outfit. -->

  <!-- Background -->
  <rect width="200" height="240" fill="#fdf8f0" rx="16"/>

  <!-- Stars -->
  <polygon transform="translate(28,30) scale(0.85)" points="0,-9 2.12,-2.91 8.56,-2.78 3.42,1.11 5.29,7.28 0,3.6 -5.29,7.28 -3.42,1.11 -8.56,-2.78 -2.12,-2.91" fill="#f5c842" opacity="0.65"/>
  <polygon transform="translate(170,38) scale(0.6)" points="0,-9 2.12,-2.91 8.56,-2.78 3.42,1.11 5.29,7.28 0,3.6 -5.29,7.28 -3.42,1.11 -8.56,-2.78 -2.12,-2.91" fill="#f5c842" opacity="0.5"/>

  <!-- Tiny sparkle dots -->
  <circle cx="155" cy="22" r="2.5" fill="#f5c842" opacity="0.5"/>
  <circle cx="160" cy="18" r="1.5" fill="#f5c842" opacity="0.4"/>
  <circle cx="165" cy="24" r="2" fill="#f5c842" opacity="0.4"/>

  <!-- Body -->
  <ellipse cx="100" cy="192" rx="40" ry="30" fill="#f7c9ae" stroke="#3a2a4a" stroke-width="2"/>

  <!-- Left arm -->
  <ellipse cx="61" cy="198" rx="13" ry="9" fill="#f7c9ae" stroke="#3a2a4a" stroke-width="2" transform="rotate(-22 61 198)"/>

  <!-- Right arm -->
  <ellipse cx="139" cy="198" rx="13" ry="9" fill="#f7c9ae" stroke="#3a2a4a" stroke-width="2" transform="rotate(22 139 198)"/>

  <!-- Head -->
  <circle cx="100" cy="95" r="63" fill="#ffffff" stroke="#3a2a4a" stroke-width="2.5"/>

  <!-- Left cheek blush — slightly more prominent for smile week -->
  <circle cx="68" cy="111" r="24" fill="#f2a07b" opacity="0.38"/>

  <!-- Right cheek blush -->
  <circle cx="132" cy="111" r="24" fill="#f2a07b" opacity="0.38"/>

  <!-- Left eye — closed crescent -->
  <path d="M 80,90 Q 88,82 96,90" fill="none" stroke="#3a2a4a" stroke-width="2.5" stroke-linecap="round"/>

  <!-- Right eye — closed crescent -->
  <path d="M 104,90 Q 112,82 120,90" fill="none" stroke="#3a2a4a" stroke-width="2.5" stroke-linecap="round"/>

  <!-- Nose -->
  <circle cx="96.5" cy="101" r="1.5" fill="#3a2a4a" opacity="0.6"/>
  <circle cx="103.5" cy="101" r="1.5" fill="#3a2a4a" opacity="0.6"/>

  <!-- Mouth — tiny beginning smile, corners barely turned up -->
  <path d="M 92,114 Q 96,117 100,115 Q 104,117 108,114" fill="none" stroke="#3a2a4a" stroke-width="2.2" stroke-linecap="round" stroke-linejoin="round"/>

  <!-- Small heart near cheek — first smile is a big deal -->
  <path d="M 148,80 C 148,77 152,75 152,79 C 152,75 156,77 156,80 C 156,84 152,87 152,87 C 152,87 148,84 148,80 Z" fill="#f2a07b" opacity="0.55"/>
</svg>
