<svg xmlns="http://www.w3.org/2000/svg" viewBox="0 0 200 240">
  <!-- Week 8 — Social smiles in full swing! Big gummy grin. Gold outfit. Celebration! -->

  <!-- Background -->
  <rect width="200" height="240" fill="#fdf8f0" rx="16"/>

  <!-- Stars — lots of them for the smile milestone -->
  <polygon transform="translate(25,30) scale(0.9)" points="0,-9 2.12,-2.91 8.56,-2.78 3.42,1.11 5.29,7.28 0,3.6 -5.29,7.28 -3.42,1.11 -8.56,-2.78 -2.12,-2.91" fill="#f5c842" opacity="0.7"/>
  <polygon transform="translate(172,35) scale(0.85)" points="0,-9 2.12,-2.91 8.56,-2.78 3.42,1.11 5.29,7.28 0,3.6 -5.29,7.28 -3.42,1.11 -8.56,-2.78 -2.12,-2.91" fill="#f5c842" opacity="0.7"/>
  <polygon transform="translate(155,18) scale(0.5)" points="0,-9 2.12,-2.91 8.56,-2.78 3.42,1.11 5.29,7.28 0,3.6 -5.29,7.28 -3.42,1.11 -8.56,-2.78 -2.12,-2.91" fill="#f5c842" opacity="0.55"/>
  <polygon transform="translate(42,20) scale(0.5)" points="0,-9 2.12,-2.91 8.56,-2.78 3.42,1.11 5.29,7.28 0,3.6 -5.29,7.28 -3.42,1.11 -8.56,-2.78 -2.12,-2.91" fill="#f5c842" opacity="0.55"/>
  <polygon transform="translate(18,55) scale(0.4)" points="0,-9 2.12,-2.91 8.56,-2.78 3.42,1.11 5.29,7.28 0,3.6 -5.29,7.28 -3.42,1.11 -8.56,-2.78 -2.12,-2.91" fill="#f5c842" opacity="0.4"/>
  <polygon transform="translate(183,60) scale(0.4)" points="0,-9 2.12,-2.91 8.56,-2.78 3.42,1.11 5.29,7.28 0,3.6 -5.29,7.28 -3.42,1.11 -8.56,-2.78 -2.12,-2.91" fill="#f5c842" opacity="0.4"/>

  <!-- Body — gold, celebratory -->
  <ellipse cx="100" cy="192" rx="40" ry="30" fill="#f5c842" stroke="#3a2a4a" stroke-width="2"/>

  <!-- Left arm — slightly raised in excitement -->
  <ellipse cx="60" cy="194" rx="14" ry="9" fill="#f5c842" stroke="#3a2a4a" stroke-width="2" transform="rotate(-35 60 194)"/>

  <!-- Right arm — slightly raised -->
  <ellipse cx="140" cy="194" rx="14" ry="9" fill="#f5c842" stroke="#3a2a4a" stroke-width="2" transform="rotate(35 140 194)"/>

  <!-- Head -->
  <circle cx="100" cy="95" r="64" fill="#ffffff" stroke="#3a2a4a" stroke-width="2.5"/>

  <!-- Left cheek blush — prominent for big smile! -->
  <circle cx="67" cy="112" r="26" fill="#f2a07b" opacity="0.42"/>

  <!-- Right cheek blush -->
  <circle cx="133" cy="112" r="26" fill="#f2a07b" opacity="0.42"/>

  <!-- Left eye — open, happy arc -->
  <path d="M 79,89 Q 87,80 95,89" fill="none" stroke="#3a2a4a" stroke-width="2.8" stroke-linecap="round"/>
  <ellipse cx="87" cy="89" rx="4.5" ry="3" fill="#3a2a4a" opacity="0.8"/>

  <!-- Right eye — open, happy arc -->
  <path d="M 105,89 Q 113,80 121,89" fill="none" stroke="#3a2a4a" stroke-width="2.8" stroke-linecap="round"/>
  <ellipse cx="113" cy="89" rx="4.5" ry="3" fill="#3a2a4a" opacity="0.8"/>

  <!-- Nose -->
  <circle cx="96.5" cy="101" r="1.5" fill="#3a2a4a" opacity="0.6"/>
  <circle cx="103.5" cy="101" r="1.5" fill="#3a2a4a" opacity="0.6"/>

  <!-- Mouth — BIG GUMMY SMILE -->
  <path d="M 85,113 Q 100,128 115,113" fill="#3a2a4a" stroke="#3a2a4a" stroke-width="2" stroke-linecap="round" stroke-linejoin="round"/>
  <!-- Gums / teeth area -->
  <path d="M 86,113 Q 100,127 114,113" fill="#ffffff"/>
  <!-- Gum line detail -->
  <path d="M 88,116 Q 100,124 112,116" fill="none" stroke="#f2a07b" stroke-width="1.5" opacity="0.6"/>
</svg>
